<svg xmlns="http://www.w3.org/2000/svg" viewBox="0 0 1400 1200" width="1400" height="1200" role="img" preserveAspectRatio="xMidYMid slice">
  <defs>
  <radialGradient id="g0" cx="50%" cy="50%" r="50%">
    <stop offset="0%" stop-color="#4E3B24" stop-opacity="0.50"/>
    <stop offset="100%" stop-color="#4E3B24" stop-opacity="0"/>
  </radialGradient>
  <radialGradient id="g1" cx="50%" cy="50%" r="50%">
    <stop offset="0%" stop-color="#F0DDBE" stop-opacity="0.51"/>
    <stop offset="100%" stop-color="#F0DDBE" stop-opacity="0"/>
  </radialGradient>
  <radialGradient id="g2" cx="50%" cy="50%" r="50%">
    <stop offset="0%" stop-color="#F0DDBE" stop-opacity="0.52"/>
    <stop offset="100%" stop-color="#F0DDBE" stop-opacity="0"/>
  </radialGradient>
  <radialGradient id="g3" cx="50%" cy="50%" r="50%">
    <stop offset="0%" stop-color="#DCB878" stop-opacity="0.72"/>
    <stop offset="100%" stop-color="#DCB878" stop-opacity="0"/>
  </radialGradient>
  <radialGradient id="g4" cx="50%" cy="50%" r="50%">
    <stop offset="0%" stop-color="#4E3B24" stop-opacity="0.66"/>
    <stop offset="100%" stop-color="#4E3B24" stop-opacity="0"/>
  </radialGradient>
    <linearGradient id="streep" x1="10%" y1="20%" x2="90%" y2="80%">
      <stop offset="0%" stop-color="#FBF4E8" stop-opacity="0"/>
      <stop offset="45%" stop-color="#F0DDBE" stop-opacity="0.35"/>
      <stop offset="100%" stop-color="#A8834C" stop-opacity="0"/>
    </linearGradient>
    <radialGradient id="vignet" cx="50%" cy="45%" r="72%">
      <stop offset="55%" stop-color="#000000" stop-opacity="0"/>
      <stop offset="100%" stop-color="#241C13" stop-opacity="0.38"/>
    </radialGradient>
    <filter id="korrel" x="0" y="0" width="100%" height="100%">
      <feTurbulence type="fractalNoise" baseFrequency="0.85" numOctaves="3" seed="61" result="ruis"/>
      <feColorMatrix type="saturate" values="0" in="ruis" result="grijs"/>
      <feComponentTransfer in="grijs" result="korrel">
        <feFuncA type="linear" slope="0.16"/>
      </feComponentTransfer>
    </filter>
    <filter id="zacht" x="-20%" y="-20%" width="140%" height="140%">
      <feGaussianBlur stdDeviation="49"/>
    </filter>
  </defs>

  <rect width="1400" height="1200" fill="#FBF4E8"/>
  <g filter="url(#zacht)">
  <ellipse cx="121" cy="158" rx="951" ry="953" fill="url(#g0)"/>
  <ellipse cx="675" cy="381" rx="642" ry="439" fill="url(#g1)"/>
  <ellipse cx="1417" cy="895" rx="783" ry="640" fill="url(#g2)"/>
  <ellipse cx="23" cy="449" rx="950" ry="971" fill="url(#g3)"/>
  <ellipse cx="1571" cy="784" rx="861" ry="593" fill="url(#g4)"/>
  </g>
  <rect width="1400" height="1200" fill="url(#streep)"/>
  <circle cx="362" cy="489" r="26" fill="#DCB878" opacity="0.07"/>
  <circle cx="677" cy="647" r="23" fill="#F0DDBE" opacity="0.11"/>
  <circle cx="592" cy="129" r="40" fill="#FBF4E8" opacity="0.07"/>
  <circle cx="161" cy="424" r="39" fill="#FBF4E8" opacity="0.19"/>
  <circle cx="592" cy="477" r="26" fill="#F0DDBE" opacity="0.12"/>
  <circle cx="1313" cy="368" r="50" fill="#FBF4E8" opacity="0.22"/>
  <circle cx="1340" cy="442" r="30" fill="#FBF4E8" opacity="0.12"/>
  <circle cx="1170" cy="1154" r="82" fill="#FBF4E8" opacity="0.14"/>
  <circle cx="107" cy="131" r="31" fill="#F0DDBE" opacity="0.20"/>
  <circle cx="851" cy="886" r="33" fill="#FBF4E8" opacity="0.09"/>
  <circle cx="636" cy="384" r="22" fill="#DCB878" opacity="0.20"/>
  <circle cx="149" cy="482" r="27" fill="#FBF4E8" opacity="0.20"/>
  <circle cx="828" cy="108" r="57" fill="#FBF4E8" opacity="0.08"/>
  <circle cx="151" cy="204" r="74" fill="#F0DDBE" opacity="0.13"/>
  <circle cx="327" cy="559" r="79" fill="#F0DDBE" opacity="0.15"/>
  <circle cx="1359" cy="942" r="67" fill="#DCB878" opacity="0.19"/>
  <circle cx="922" cy="911" r="50" fill="#DCB878" opacity="0.14"/>
  <circle cx="897" cy="728" r="20" fill="#DCB878" opacity="0.12"/>
  <circle cx="1229" cy="386" r="72" fill="#F0DDBE" opacity="0.17"/>
  <circle cx="1313" cy="564" r="36" fill="#F0DDBE" opacity="0.08"/>
  <circle cx="910" cy="740" r="83" fill="#F0DDBE" opacity="0.16"/>
  <circle cx="256" cy="692" r="81" fill="#F0DDBE" opacity="0.10"/>
  <circle cx="583" cy="136" r="51" fill="#DCB878" opacity="0.18"/>
  <circle cx="968" cy="889" r="47" fill="#F0DDBE" opacity="0.15"/>
  <circle cx="506" cy="735" r="51" fill="#DCB878" opacity="0.10"/>
  <rect width="1400" height="1200" fill="url(#vignet)"/>
  <rect width="1400" height="1200" filter="url(#korrel)" opacity="0.55"/>
</svg>
