<svg xmlns="http://www.w3.org/2000/svg" viewBox="0 0 1920 1200" width="1920" height="1200" role="img" preserveAspectRatio="xMidYMid slice">
  <defs>
  <radialGradient id="g0" cx="50%" cy="50%" r="50%">
    <stop offset="0%" stop-color="#4E3B24" stop-opacity="0.58"/>
    <stop offset="100%" stop-color="#4E3B24" stop-opacity="0"/>
  </radialGradient>
  <radialGradient id="g1" cx="50%" cy="50%" r="50%">
    <stop offset="0%" stop-color="#DCB878" stop-opacity="0.75"/>
    <stop offset="100%" stop-color="#DCB878" stop-opacity="0"/>
  </radialGradient>
  <radialGradient id="g2" cx="50%" cy="50%" r="50%">
    <stop offset="0%" stop-color="#A8834C" stop-opacity="0.67"/>
    <stop offset="100%" stop-color="#A8834C" stop-opacity="0"/>
  </radialGradient>
  <radialGradient id="g3" cx="50%" cy="50%" r="50%">
    <stop offset="0%" stop-color="#4E3B24" stop-opacity="0.43"/>
    <stop offset="100%" stop-color="#4E3B24" stop-opacity="0"/>
  </radialGradient>
  <radialGradient id="g4" cx="50%" cy="50%" r="50%">
    <stop offset="0%" stop-color="#F0DDBE" stop-opacity="0.37"/>
    <stop offset="100%" stop-color="#F0DDBE" stop-opacity="0"/>
  </radialGradient>
    <linearGradient id="streep" x1="53%" y1="0%" x2="47%" y2="100%">
      <stop offset="0%" stop-color="#FBF4E8" stop-opacity="0"/>
      <stop offset="45%" stop-color="#F0DDBE" stop-opacity="0.35"/>
      <stop offset="100%" stop-color="#A8834C" stop-opacity="0"/>
    </linearGradient>
    <radialGradient id="vignet" cx="50%" cy="45%" r="72%">
      <stop offset="55%" stop-color="#000000" stop-opacity="0"/>
      <stop offset="100%" stop-color="#241C13" stop-opacity="0.38"/>
    </radialGradient>
    <filter id="korrel" x="0" y="0" width="100%" height="100%">
      <feTurbulence type="fractalNoise" baseFrequency="0.85" numOctaves="3" seed="11" result="ruis"/>
      <feColorMatrix type="saturate" values="0" in="ruis" result="grijs"/>
      <feComponentTransfer in="grijs" result="korrel">
        <feFuncA type="linear" slope="0.16"/>
      </feComponentTransfer>
    </filter>
    <filter id="zacht" x="-20%" y="-20%" width="140%" height="140%">
      <feGaussianBlur stdDeviation="67"/>
    </filter>
  </defs>

  <rect width="1920" height="1200" fill="#FBF4E8"/>
  <g filter="url(#zacht)">
  <ellipse cx="1873" cy="1157" rx="1198" ry="1231" fill="url(#g0)"/>
  <ellipse cx="173" cy="619" rx="1070" ry="692" fill="url(#g1)"/>
  <ellipse cx="66" cy="660" rx="1290" ry="1158" fill="url(#g2)"/>
  <ellipse cx="2120" cy="840" rx="1058" ry="643" fill="url(#g3)"/>
  <ellipse cx="-139" cy="117" rx="742" ry="617" fill="url(#g4)"/>
  </g>
  <rect width="1920" height="1200" fill="url(#streep)"/>
  <circle cx="1617" cy="623" r="82" fill="#DCB878" opacity="0.14"/>
  <circle cx="163" cy="786" r="61" fill="#DCB878" opacity="0.15"/>
  <circle cx="1359" cy="378" r="44" fill="#FBF4E8" opacity="0.11"/>
  <circle cx="1081" cy="130" r="33" fill="#FBF4E8" opacity="0.11"/>
  <circle cx="1839" cy="1017" r="23" fill="#FBF4E8" opacity="0.09"/>
  <circle cx="902" cy="1176" r="60" fill="#FBF4E8" opacity="0.07"/>
  <circle cx="381" cy="810" r="54" fill="#DCB878" opacity="0.11"/>
  <circle cx="1851" cy="910" r="34" fill="#FBF4E8" opacity="0.10"/>
  <circle cx="21" cy="558" r="68" fill="#FBF4E8" opacity="0.17"/>
  <circle cx="859" cy="229" r="90" fill="#FBF4E8" opacity="0.08"/>
  <circle cx="737" cy="474" r="114" fill="#DCB878" opacity="0.06"/>
  <circle cx="584" cy="1062" r="42" fill="#DCB878" opacity="0.12"/>
  <circle cx="1232" cy="120" r="114" fill="#DCB878" opacity="0.09"/>
  <circle cx="18" cy="732" r="100" fill="#F0DDBE" opacity="0.12"/>
  <circle cx="173" cy="699" r="45" fill="#FBF4E8" opacity="0.16"/>
  <circle cx="1195" cy="153" r="77" fill="#F0DDBE" opacity="0.19"/>
  <circle cx="1664" cy="219" r="37" fill="#FBF4E8" opacity="0.21"/>
  <circle cx="479" cy="228" r="91" fill="#DCB878" opacity="0.21"/>
  <circle cx="1319" cy="466" r="68" fill="#FBF4E8" opacity="0.07"/>
  <circle cx="199" cy="46" r="112" fill="#FBF4E8" opacity="0.10"/>
  <circle cx="752" cy="505" r="106" fill="#DCB878" opacity="0.14"/>
  <rect width="1920" height="1200" fill="url(#vignet)"/>
  <rect width="1920" height="1200" filter="url(#korrel)" opacity="0.55"/>
</svg>
