<svg xmlns="http://www.w3.org/2000/svg" viewBox="0 0 1920 1080" width="1920" height="1080" role="img" preserveAspectRatio="xMidYMid slice">
  <defs>
  <radialGradient id="g0" cx="50%" cy="50%" r="50%">
    <stop offset="0%" stop-color="#2A2018" stop-opacity="0.36"/>
    <stop offset="100%" stop-color="#2A2018" stop-opacity="0"/>
  </radialGradient>
  <radialGradient id="g1" cx="50%" cy="50%" r="50%">
    <stop offset="0%" stop-color="#C9B49A" stop-opacity="0.50"/>
    <stop offset="100%" stop-color="#C9B49A" stop-opacity="0"/>
  </radialGradient>
  <radialGradient id="g2" cx="50%" cy="50%" r="50%">
    <stop offset="0%" stop-color="#C9B49A" stop-opacity="0.63"/>
    <stop offset="100%" stop-color="#C9B49A" stop-opacity="0"/>
  </radialGradient>
  <radialGradient id="g3" cx="50%" cy="50%" r="50%">
    <stop offset="0%" stop-color="#5B4534" stop-opacity="0.68"/>
    <stop offset="100%" stop-color="#5B4534" stop-opacity="0"/>
  </radialGradient>
  <radialGradient id="g4" cx="50%" cy="50%" r="50%">
    <stop offset="0%" stop-color="#2A2018" stop-opacity="0.82"/>
    <stop offset="100%" stop-color="#2A2018" stop-opacity="0"/>
  </radialGradient>
    <linearGradient id="streep" x1="39%" y1="1%" x2="61%" y2="99%">
      <stop offset="0%" stop-color="#EDE4D8" stop-opacity="0"/>
      <stop offset="45%" stop-color="#C9B49A" stop-opacity="0.35"/>
      <stop offset="100%" stop-color="#5B4534" stop-opacity="0"/>
    </linearGradient>
    <radialGradient id="vignet" cx="50%" cy="45%" r="72%">
      <stop offset="55%" stop-color="#000000" stop-opacity="0"/>
      <stop offset="100%" stop-color="#241C13" stop-opacity="0.38"/>
    </radialGradient>
    <filter id="korrel" x="0" y="0" width="100%" height="100%">
      <feTurbulence type="fractalNoise" baseFrequency="0.85" numOctaves="3" seed="81" result="ruis"/>
      <feColorMatrix type="saturate" values="0" in="ruis" result="grijs"/>
      <feComponentTransfer in="grijs" result="korrel">
        <feFuncA type="linear" slope="0.16"/>
      </feComponentTransfer>
    </filter>
    <filter id="zacht" x="-20%" y="-20%" width="140%" height="140%">
      <feGaussianBlur stdDeviation="67"/>
    </filter>
  </defs>

  <rect width="1920" height="1080" fill="#2A2018"/>
  <g filter="url(#zacht)">
  <ellipse cx="556" cy="584" rx="942" ry="635" fill="url(#g0)"/>
  <ellipse cx="1973" cy="243" rx="840" ry="560" fill="url(#g1)"/>
  <ellipse cx="240" cy="891" rx="1277" ry="881" fill="url(#g2)"/>
  <ellipse cx="173" cy="1087" rx="1190" ry="980" fill="url(#g3)"/>
  <ellipse cx="-243" cy="1121" rx="1142" ry="933" fill="url(#g4)"/>
  </g>
  <rect width="1920" height="1080" fill="url(#streep)"/>
  <circle cx="1422" cy="296" r="55" fill="#C9B49A" opacity="0.18"/>
  <circle cx="119" cy="462" r="51" fill="#EDE4D8" opacity="0.10"/>
  <circle cx="1766" cy="242" r="32" fill="#EDE4D8" opacity="0.09"/>
  <circle cx="1198" cy="322" r="101" fill="#EDE4D8" opacity="0.07"/>
  <circle cx="1028" cy="144" r="101" fill="#C9B49A" opacity="0.12"/>
  <circle cx="69" cy="378" r="109" fill="#EDE4D8" opacity="0.17"/>
  <circle cx="1734" cy="454" r="32" fill="#C9B49A" opacity="0.21"/>
  <circle cx="819" cy="212" r="25" fill="#EDE4D8" opacity="0.18"/>
  <circle cx="907" cy="205" r="102" fill="#93765A" opacity="0.20"/>
  <circle cx="1524" cy="508" r="71" fill="#93765A" opacity="0.12"/>
  <circle cx="1836" cy="296" r="112" fill="#C9B49A" opacity="0.19"/>
  <circle cx="1790" cy="464" r="94" fill="#C9B49A" opacity="0.18"/>
  <circle cx="1908" cy="1059" r="88" fill="#EDE4D8" opacity="0.14"/>
  <circle cx="1379" cy="264" r="110" fill="#EDE4D8" opacity="0.07"/>
  <circle cx="986" cy="174" r="64" fill="#C9B49A" opacity="0.18"/>
  <circle cx="1912" cy="431" r="56" fill="#EDE4D8" opacity="0.19"/>
  <circle cx="1912" cy="247" r="54" fill="#EDE4D8" opacity="0.12"/>
  <circle cx="208" cy="414" r="101" fill="#93765A" opacity="0.14"/>
  <rect width="1920" height="1080" fill="url(#vignet)"/>
  <rect width="1920" height="1080" filter="url(#korrel)" opacity="0.55"/>
</svg>
